<?xml version="1.0" standalone="no"?>
<!DOCTYPE svg PUBLIC "-//W3C//DTD SVG 20010904//EN"
 "http://www.w3.org/TR/2001/REC-SVG-20010904/DTD/svg10.dtd">
<svg version="1.0" xmlns="http://www.w3.org/2000/svg"
 width="1276.000000pt" height="1276.000000pt" viewBox="0 0 1276.000000 1276.000000"
 preserveAspectRatio="xMidYMid meet">
<metadata>
Created by potrace 1.14, written by Peter Selinger 2001-2017
</metadata>
<g transform="translate(0.000000,1276.000000) scale(0.100000,-0.100000)"
fill="#000000" stroke="none">
<path d="M5595 9961 c-92 -43 -115 -96 -115 -273 l-1 -133 -72 -35 c-143 -68
-271 -230 -311 -391 -20 -82 -21 -207 -1 -283 20 -75 71 -177 112 -226 18 -21
33 -43 33 -49 0 -6 -47 -138 -105 -294 -58 -155 -170 -457 -248 -672 l-144
-390 -349 -5 c-333 -5 -351 -6 -389 -27 -50 -27 -80 -58 -100 -105 -30 -73
-16 -145 40 -209 55 -62 63 -64 367 -69 l276 -5 -127 -350 -128 -350 -34 -3
c-199 -15 -406 -47 -638 -98 -173 -38 -242 -60 -381 -124 -86 -40 -246 -86
-550 -159 -252 -61 -429 -122 -508 -175 -164 -109 -349 -334 -467 -566 -99
-195 -131 -319 -122 -465 8 -118 28 -189 87 -310 109 -224 252 -359 633 -599
237 -149 290 -185 407 -277 175 -138 262 -182 444 -224 38 -8 75 -20 81 -25
17 -14 175 -58 231 -64 28 -3 104 4 179 15 165 26 265 21 504 -26 191 -38 312
-55 551 -80 252 -25 330 -36 420 -56 169 -39 207 -43 274 -31 192 36 542 39
690 7 106 -23 247 -35 531 -45 312 -11 392 -16 685 -38 351 -26 542 -23 800
15 118 18 258 35 310 38 942 57 1280 92 1431 149 138 52 194 65 310 76 147 14
474 92 634 151 71 27 151 48 225 59 133 21 120 17 275 88 66 30 195 87 287
127 93 41 204 97 250 128 78 52 180 146 230 212 12 17 27 35 33 40 6 6 34 37
62 70 144 171 236 334 274 485 40 157 12 379 -68 548 -90 191 -264 339 -593
506 -85 44 -179 95 -208 114 -195 124 -484 263 -681 326 -223 72 -292 88 -766
178 -60 11 -168 38 -240 60 -114 35 -141 39 -215 37 -360 -10 -562 2 -709 42
-99 27 -287 54 -506 74 -321 28 -788 83 -904 105 -126 24 -412 21 -616 -6
l-40 -5 -76 213 -77 213 282 5 c279 5 281 5 316 30 142 100 132 275 -20 356
-32 17 -68 19 -384 24 l-349 5 -144 390 c-78 215 -190 517 -248 672 -58 156
-105 288 -105 294 0 6 15 28 33 49 17 21 47 67 64 103 87 173 85 367 -5 542
-51 98 -164 209 -259 255 l-71 35 -4 147 c-3 144 -3 147 -33 190 -56 80 -162
110 -250 69z m137 -791 c50 -14 97 -55 119 -105 66 -144 -59 -298 -213 -263
-183 41 -198 300 -21 363 47 17 67 18 115 5z m-7 -822 c9 -24 50 -131 90 -238
40 -107 130 -346 200 -530 70 -184 130 -343 132 -352 5 -17 -6 -18 -130 -18
l-135 0 -3 129 c-4 125 -5 131 -34 172 -54 76 -153 107 -238 74 -96 -36 -127
-102 -127 -266 l0 -109 -136 0 c-125 0 -136 1 -131 18 2 9 62 168 132 352 70
184 160 423 200 530 111 298 103 280 135 280 23 0 31 -7 45 -42z m-243 -1675
c4 -145 20 -191 80 -229 85 -55 176 -51 246 10 58 51 72 94 72 229 l0 117 216
-2 216 -3 70 -180 c38 -99 76 -197 83 -217 l14 -38 -364 0 c-447 0 -622 -11
-820 -52 -147 -30 -445 -54 -445 -36 0 8 34 98 130 348 29 74 56 145 61 158 8
22 10 22 223 22 l214 0 4 -127z m1220 -888 l56 -146 -187 2 c-136 2 -210 -2
-276 -14 -49 -9 -191 -26 -315 -37 -283 -25 -366 -36 -459 -62 -41 -11 -104
-24 -140 -29 -45 -7 -89 -23 -145 -53 -58 -31 -106 -48 -171 -60 -139 -27
-291 -80 -388 -136 -48 -27 -89 -50 -92 -50 -3 0 -45 -20 -94 -44 l-89 -44 23
61 c13 34 65 170 114 301 50 132 96 243 102 247 6 3 97 9 202 12 125 4 229 13
297 26 219 41 282 51 392 61 62 6 163 20 223 32 89 17 126 19 195 12 151 -14
176 -12 470 46 52 10 125 18 161 19 l65 1 56 -145z m833 113 c113 -16 187 -20
385 -19 291 1 411 -12 751 -80 127 -25 210 -36 414 -54 176 -16 333 -32 564
-60 208 -24 350 -58 681 -162 80 -25 249 -77 375 -115 596 -180 778 -251 980
-383 120 -78 289 -228 381 -341 90 -110 89 -233 -5 -333 -77 -83 -514 -359
-771 -487 -215 -107 -293 -136 -566 -209 -110 -30 -243 -71 -295 -91 -52 -20
-155 -55 -229 -77 -133 -39 -139 -39 -325 -44 -193 -4 -352 -27 -480 -69 -35
-11 -100 -18 -210 -21 -153 -4 -169 -6 -360 -55 l-200 -51 -280 -8 c-154 -4
-314 -13 -355 -19 -55 -9 -129 -10 -280 -4 -286 12 -443 11 -599 -4 -157 -14
-322 -5 -610 34 -138 18 -285 28 -571 39 -717 27 -734 29 -1295 151 -601 130
-613 135 -808 283 -95 71 -156 100 -257 121 -47 10 -128 33 -180 53 -139 52
-244 76 -398 92 -160 16 -212 26 -307 62 -126 47 -241 112 -356 204 -274 219
-300 274 -214 473 19 45 35 87 35 93 0 7 26 40 57 74 116 125 309 232 702 389
53 21 157 66 231 100 150 69 326 131 440 154 76 16 549 61 556 53 3 -2 -7 -36
-21 -74 l-25 -70 70 -219 c38 -121 70 -223 70 -228 0 -5 -12 -39 -27 -75 -55
-135 -26 -310 78 -465 71 -106 144 -168 326 -273 87 -51 188 -114 225 -141 70
-52 76 -54 208 -97 78 -25 93 -27 185 -21 72 5 122 3 175 -8 41 -8 106 -17
145 -21 38 -3 103 -15 145 -25 41 -10 118 -24 170 -30 52 -6 140 -20 195 -30
178 -34 337 -40 652 -25 106 5 180 4 250 -6 118 -15 777 -21 933 -7 58 5 141
15 185 23 44 8 125 19 180 24 67 6 129 20 188 41 53 19 133 37 200 45 98 13
350 66 602 126 87 21 155 52 340 155 218 121 321 209 380 326 61 122 56 194
-25 364 -30 62 -54 95 -104 142 -36 33 -87 73 -113 88 -27 16 -67 43 -90 61
-39 33 -207 113 -322 155 -30 10 -93 24 -140 29 -113 12 -272 52 -396 99 -108
41 -171 56 -280 65 -38 4 -144 24 -235 46 -178 42 -276 54 -495 64 -77 3 -168
11 -203 17 -45 7 -75 7 -107 -1 -25 -6 -91 -14 -148 -17 l-103 -7 -52 144
c-29 79 -52 147 -52 151 0 23 234 16 435 -14z m-664 -557 c21 -58 36 -108 32
-112 -22 -19 -88 -29 -192 -29 -144 0 -283 -15 -341 -35 -24 -8 -120 -22 -214
-30 -188 -17 -220 -27 -331 -104 -33 -23 -96 -66 -140 -96 -137 -91 -184 -185
-151 -298 20 -66 73 -128 184 -214 48 -37 106 -84 129 -104 28 -24 71 -45 130
-65 80 -26 101 -29 233 -30 80 -1 192 -6 250 -12 58 -6 161 -15 230 -22 69 -6
161 -16 205 -22 106 -14 375 -5 435 15 64 21 201 36 370 41 109 4 163 10 215
26 39 11 133 34 210 50 220 46 316 91 414 195 72 76 94 131 89 223 -3 69 -5
74 -43 112 -22 21 -98 75 -168 119 -120 74 -144 84 -355 154 -195 65 -240 76
-322 82 -52 3 -162 14 -245 25 -82 10 -180 22 -217 26 -38 3 -68 9 -68 13 0 3
13 47 29 96 l28 90 174 0 c132 0 223 -7 374 -27 110 -15 281 -35 380 -43 99
-9 232 -27 295 -41 63 -14 165 -32 225 -40 127 -16 181 -32 285 -84 42 -21
150 -64 240 -95 181 -62 274 -108 377 -184 159 -116 179 -143 168 -230 -11
-87 -28 -116 -127 -212 -68 -66 -111 -99 -158 -121 -183 -85 -241 -109 -300
-123 -36 -9 -117 -34 -182 -56 -79 -27 -160 -46 -255 -59 -76 -11 -219 -37
-318 -59 -208 -45 -227 -47 -478 -61 -103 -6 -245 -17 -315 -25 -140 -17 -753
-39 -817 -30 -22 4 -83 15 -135 25 -57 11 -184 23 -320 30 -124 6 -270 18
-325 26 -55 9 -152 20 -215 25 -144 11 -157 13 -255 49 -44 15 -111 36 -148
45 -49 13 -87 31 -135 66 -37 27 -85 54 -107 60 -22 5 -75 21 -118 35 -43 13
-115 29 -160 35 -45 5 -112 18 -148 29 -68 20 -262 131 -312 178 -32 30 -69
96 -87 159 -11 37 -10 46 9 85 27 57 73 100 206 194 146 102 203 127 370 165
77 17 174 46 215 64 45 20 101 36 140 40 58 6 252 49 411 90 30 8 82 15 115
15 35 0 95 11 145 25 97 29 304 47 571 49 92 1 170 5 175 9 4 4 29 7 56 5 l48
-3 40 -104z"/>
<path d="M11160 9156 c-466 -84 -730 -361 -730 -767 0 -235 71 -403 243 -569
111 -109 281 -208 574 -336 260 -113 345 -183 359 -296 4 -36 0 -52 -26 -96
-45 -77 -104 -103 -250 -110 -241 -11 -463 56 -779 238 -49 27 -91 50 -95 50
-3 0 -6 -152 -6 -338 l0 -338 48 -18 c135 -52 273 -98 362 -121 660 -167 1215
-40 1463 335 82 124 124 293 114 460 -13 198 -66 318 -202 456 -49 50 -118
109 -151 132 -97 65 -293 172 -504 275 -287 140 -350 193 -350 296 0 84 55
149 147 177 103 31 326 11 476 -43 94 -33 282 -129 379 -193 42 -27 79 -50 82
-50 3 0 6 146 6 325 l0 325 -94 45 c-123 59 -271 108 -426 140 -108 23 -155
27 -345 30 -155 3 -242 0 -295 -9z"/>
<path d="M437 9133 c-4 -3 -7 -615 -7 -1360 l0 -1353 405 0 405 0 2 772 3 772
359 -442 359 -442 41 0 41 0 355 439 355 439 5 -766 5 -767 415 0 415 0 0
1355 0 1355 -375 2 -375 3 -415 -504 c-273 -332 -418 -502 -425 -496 -6 5
-193 232 -415 504 l-405 495 -371 1 c-204 0 -374 -3 -377 -7z"/>
<path d="M7817 9134 c-4 -4 -7 -616 -7 -1361 l0 -1353 415 0 415 0 0 504 0
504 358 5 c370 5 432 11 572 55 158 49 277 120 378 226 157 166 232 374 219
611 -23 417 -290 704 -737 791 -73 15 -189 17 -845 21 -418 2 -764 1 -768 -3z
m1209 -545 c223 -31 302 -123 292 -341 -10 -223 -107 -277 -495 -278 l-183 0
0 315 0 315 154 0 c85 0 189 -5 232 -11z"/>
</g>
</svg>
