<?xml version="1.0" encoding="UTF-8" standalone="no"?>
<svg
   xmlns:dc="http://purl.org/dc/elements/1.1/"
   xmlns:cc="http://creativecommons.org/ns#"
   xmlns:rdf="http://www.w3.org/1999/02/22-rdf-syntax-ns#"
   xmlns:svg="http://www.w3.org/2000/svg"
   xmlns="http://www.w3.org/2000/svg"
   xmlns:sodipodi="http://sodipodi.sourceforge.net/DTD/sodipodi-0.dtd"
   xmlns:inkscape="http://www.inkscape.org/namespaces/inkscape"
   version="1.1"
   width="20"
   height="20"
   id="svg2"
   sodipodi:docname="BlueDot.svg"
   inkscape:version="1.0.2 (e86c8708, 2021-01-15)">
  <metadata
     id="metadata76">
    <rdf:RDF>
      <cc:Work
         rdf:about="">
        <dc:format>image/svg+xml</dc:format>
        <dc:type
           rdf:resource="http://purl.org/dc/dcmitype/StillImage" />
        <dc:title></dc:title>
      </cc:Work>
    </rdf:RDF>
  </metadata>
  <defs
     id="defs74" />
  <sodipodi:namedview
     pagecolor="#ffffff"
     bordercolor="#666666"
     borderopacity="1"
     objecttolerance="10"
     gridtolerance="10"
     guidetolerance="10"
     inkscape:pageopacity="0"
     inkscape:pageshadow="2"
     inkscape:window-width="1023"
     inkscape:window-height="819"
     id="namedview72"
     showgrid="false"
     inkscape:zoom="49.340567"
     inkscape:cx="9.7574964"
     inkscape:cy="5.5690098"
     inkscape:window-x="1440"
     inkscape:window-y="23"
     inkscape:window-maximized="0"
     inkscape:current-layer="svg2" />
  <circle
     cx="10"
     cy="10"
     r="5.625"
     id="c2"
     style="fill:#ff3e3e;stroke:#000000;stroke-width:1.25" />
  <path
     style="fill:#0000ff;stroke-width:0.0237812"
     d="M 9.3460166,14.943964 C 8.2597574,14.799066 7.2650373,14.304778 6.4801297,13.51987 5.7272917,12.767032 5.2759044,11.8933 5.0732715,10.796671 5.0409004,10.621482 5.0315261,10.442583 5.0315261,10 c 0,-0.6215993 0.018686,-0.7771898 0.1556125,-1.2957042 C 5.6352093,7.0075351 7.0075351,5.6352093 8.7042958,5.1871386 9.2228102,5.0502124 9.3784007,5.0315261 10,5.0315261 c 0.621599,0 0.77719,0.018686 1.295704,0.1556125 0.349111,0.092191 0.619214,0.1969439 0.969423,0.3759668 2.067221,1.0567405 3.127676,3.3814297 2.571818,5.6378456 -0.218076,0.885244 -0.658058,1.659902 -1.317075,2.318919 -0.796191,0.796192 -1.786797,1.283931 -2.896831,1.4263 -0.342954,0.04398 -0.9384488,0.04296 -1.2770224,-0.0022 z"
     id="path78" />
  <path
     style="fill:#0000ff;stroke-width:0.00753183"
     d="m 9.9721358,5.026565 c 0.015534,-0.00162 0.040954,-0.00162 0.056488,0 0.01553,0.00162 0.0028,0.00295 -0.02824,0.00295 -0.031069,0 -0.043779,-0.00133 -0.028244,-0.00295 z"
     id="path80" />
  <path
     style="fill:#0000ff;stroke-width:0.00753183"
     d="m 9.4354932,5.0374099 c 0.012057,-0.012867 0.3400874,-0.030687 0.5648868,-0.030687 0.2248,0 0.55283,0.01782 0.564887,0.030687 0.0021,0.00221 -0.04075,0.00162 -0.09515,-0.0013 -0.128219,-0.0069 -0.8112585,-0.0069 -0.9394779,0 -0.054403,0.00293 -0.097219,0.00351 -0.095148,0.0013 z"
     id="path82" />
  <path
     style="fill:#0000ff;stroke-width:0.0166611"
     d="m 9.9019475,14.98406 c 0.057632,-0.0033 0.1476015,-0.0032 0.1999335,6e-5 0.05233,0.0033 0.0052,0.006 -0.1047849,0.0059 -0.1099635,-3.3e-5 -0.1527804,-0.0027 -0.095149,-0.006 z"
     id="path84" />
  <path
     style="fill:#0000ff;stroke-width:0.00390625"
     d="M 9.8384298,14.99588 C 9.6721135,14.98828 9.5694174,14.98069 9.4438986,14.96671 8.9392256,14.91051 8.4337501,14.773197 7.9672644,14.565568 c -0.1056321,-0.04702 -0.1522721,-0.07056 -0.1522721,-0.07687 0,-0.0034 6.082e-4,-0.0061 0.00135,-0.0061 7.433e-4,0 0.030187,0.01386 0.06543,0.0308 0.506119,0.243285 1.1297275,0.412977 1.6592528,0.451506 0.098294,0.0072 0.24448,0.01348 0.336466,0.01457 0.037598,4.45e-4 0.053428,0.0014 0.035178,0.0021 -0.01825,7.33e-4 -0.034861,0.003 -0.036914,0.0051 -0.00237,0.0024 0.04209,0.0037 0.1220484,0.0037 0.077716,0 0.1257815,-0.0014 0.1257815,-0.0037 0,-0.0021 -0.0145,-0.0043 -0.03223,-0.0051 -0.01783,-7.28e-4 -0.0043,-0.0017 0.03027,-0.0021 0.193668,-0.0025 0.397874,-0.01697 0.564453,-0.04003 0.739254,-0.102322 1.443539,-0.36885 2.056641,-0.778309 0.108956,-0.07277 0.19082,-0.131652 0.29009,-0.208662 0.02849,-0.0221 0.05266,-0.04019 0.05371,-0.04019 0.001,0 0.0019,0.004 0.0018,0.0088 -1.25e-4,0.0099 -0.05422,0.0529 -0.177109,0.140833 -0.573547,0.410425 -1.222151,0.693825 -1.909873,0.834498 -0.232153,0.04749 -0.463045,0.0777 -0.719547,0.09415 -0.06213,0.004 -0.3873815,0.0079 -0.4433595,0.0054 z"
     id="path86" />
  <path
     style="fill:#0000ff;stroke-width:0.009749"
     d="m 6.743495,13.787795 c -0.00677,-0.0082 -0.00783,-0.01462 -0.00239,-0.01462 0.00536,0 0.01521,0.0066 0.021885,0.01462 0.00677,0.0082 0.00783,0.01462 0.00239,0.01462 -0.00536,0 -0.01521,-0.0066 -0.021885,-0.01462 z"
     id="path88" />
  <path
     style="fill:#0000ff;stroke-width:0.00390625"
     d="M 5.4944318,12.162561 C 5.2331077,11.613969 5.0757426,11.041615 5.0221414,10.444787 5.0070399,10.276638 5.0043672,10.209676 5.0043672,9.9994748 c 0,-0.2105254 0.00271,-0.2781161 0.017829,-0.4453125 0.046177,-0.5105142 0.171353,-1.0170225 0.3649114,-1.4765625 0.014479,-0.034375 0.02902,-0.069092 0.032313,-0.077148 0.00329,-0.00806 0.00855,-0.014648 0.011673,-0.014648 0.00313,0 0.00475,0.0022 0.0036,0.00488 -0.128376,0.3013559 -0.1967049,0.5039009 -0.2778102,0.8235024 -0.080528,0.317327 -0.1045279,0.4643332 -0.1201688,0.736068 -0.0069,0.1198388 -0.00687,0.7943428 3.74e-5,0.9199218 0.011262,0.204726 0.028309,0.319444 0.085043,0.572266 0.081059,0.361226 0.2081574,0.741517 0.3492671,1.045041 0.048639,0.104622 0.047343,0.101443 0.041367,0.101443 -0.00299,0 -0.011094,-0.01187 -0.018002,-0.02637 z"
     id="path90" />
  <path
     style="fill:#0000ff;stroke-width:0.00390625"
     d="m 5.4281305,7.9831658 c 0,-0.012127 0.1277325,-0.2722552 0.1866798,-0.3801754 C 5.9548239,6.9804975 6.4239182,6.4378569 6.9931097,6.0085963 7.5931768,5.5560506 8.2902047,5.2442547 9.0305859,5.0971885 c 0.048831,-0.0097 0.094534,-0.017502 0.1015625,-0.017339 0.00703,1.632e-4 -0.022377,0.00787 -0.065346,0.017136 C 8.8139454,5.1514862 8.5522412,5.2230951 8.3555421,5.2916042 7.1953587,5.695689 6.2081109,6.5370392 5.6136878,7.6282614 5.5708536,7.706895 5.489544,7.8698277 5.4591973,7.9378381 c -0.011716,0.026256 -0.023498,0.047789 -0.026184,0.047852 -0.00269,6.23e-5 -0.00488,-0.00107 -0.00488,-0.00252 z"
     id="path92" />
  <path
     style="fill:#0000ff;stroke-width:0.00390625"
     d=""
     id="path94" />
  <path
     style="fill:#0000ff;stroke-width:0.00390625"
     d="m 9.1351618,5.0804909 c 0,-0.00424 0.087242,-0.018854 0.2031677,-0.034023 0.041871,-0.00548 0.080963,-0.010779 0.086871,-0.011778 0.00591,-9.99e-4 0.010742,-1.025e-4 0.010742,0.00199 0,0.00209 0.00571,0.00405 0.012695,0.00435 0.00698,2.953e-4 -0.00488,0.00203 -0.026367,0.00385 -0.080313,0.00681 -0.2443836,0.028704 -0.277557,0.03703 -0.00525,0.00132 -0.00955,6.807e-4 -0.00955,-0.00142 z"
     id="path96" />
  <path
     style="fill:#0000ff;stroke-width:0.00390625"
     d="M 12.646881,5.7773124 C 12.508618,5.6907791 12.383138,5.6204959 12.221099,5.538827 11.861763,5.3577177 11.600506,5.2616051 11.176115,5.1543921 c -0.250728,-0.063341 -0.386891,-0.08896 -0.563281,-0.1059808 -0.04036,-0.00389 -0.06781,-0.00727 -0.06101,-0.0075 0.0068,-2.311e-4 0.01296,-0.00189 0.01367,-0.00368 0.0026,-0.00651 0.210738,0.023369 0.366537,0.052621 0.56603,0.1062776 1.132301,0.3214637 1.630781,0.6197062 0.112592,0.067364 0.150469,0.092724 0.150469,0.1007431 0,0.00414 -4.4e-4,0.00749 -9.77e-4,0.00744 -5.37e-4,-5.04e-5 -0.02998,-0.018244 -0.06543,-0.04043 z"
     id="path98" />
  <path
     style="fill:#0000ff;stroke-width:0.00390625"
     d="m 9.9759821,4.9985413 c 0.012353,-7.752e-4 0.032568,-7.752e-4 0.044922,0 0.01235,7.752e-4 0.0022,0.00141 -0.022461,0.00141 -0.024707,0 -0.034814,-6.342e-4 -0.022461,-0.00141 z"
     id="path100" />
  <path
     style="fill:#0000ff;stroke-width:0.00390625"
     d="M 14.83283,8.7757583 C 14.723017,8.3325324 14.529473,7.8631404 14.290476,7.4604123 13.905026,6.8109022 13.36652,6.2458227 12.749339,5.8432248 c -0.02251,-0.014686 -0.03595,-0.02599 -0.03599,-0.030273 -3.4e-5,-0.00376 0.0014,-0.00684 0.0032,-0.00684 0.0049,0 0.145799,0.096181 0.223298,0.1524556 0.312401,0.2268443 0.604839,0.4971833 0.858222,0.7933681 0.494666,0.5782261 0.85383,1.2687252 1.041908,2.0030858 0.01816,0.070907 0.02018,0.082329 0.01458,0.082257 -0.0051,-6.61e-5 -0.0097,-0.013027 -0.02173,-0.061523 z"
     id="path102" />
  <path
     style="fill:#0000ff;stroke-width:0.00390625"
     d="m 14.308611,12.510217 c 0.527604,-0.898734 0.757666,-1.966851 0.650588,-3.0205078 -0.01269,-0.1248474 -0.0271,-0.2274622 -0.05101,-0.3632813 -0.01289,-0.073212 -0.02311,-0.1232886 -0.05709,-0.2797212 -0.0011,-0.00492 4.91e-4,-0.00911 0.0039,-0.010409 0.0044,-0.0017 0.008,0.00811 0.01629,0.045346 0.116449,0.5205265 0.15216,1.0206027 0.109392,1.5318923 -0.04676,0.558984 -0.18613,1.103143 -0.414205,1.617188 -0.03671,0.08274 -0.126065,0.265327 -0.163446,0.333984 -0.06644,0.122035 -0.117225,0.207031 -0.123695,0.207031 -0.0052,0 0.0016,-0.01424 0.02931,-0.06152 z"
     id="path104" />
  <path
     style="fill:#0000ff;stroke-width:0.00390625"
     d="m 13.088297,13.918651 c 8e-6,-0.0069 0.01457,-0.02104 0.06151,-0.0598 0.212598,-0.175552 0.428741,-0.38522 0.608062,-0.589844 0.192449,-0.219604 0.364774,-0.45286 0.508492,-0.688285 0.0051,-0.0084 0.0093,-0.01148 0.01266,-0.0094 0.0037,0.0023 -0.0053,0.01978 -0.03446,0.0666 -0.266349,0.428332 -0.602523,0.821257 -0.980864,1.14645 -0.06568,0.05645 -0.160188,0.134267 -0.170526,0.140404 -0.0033,0.002 -0.0049,3.9e-5 -0.0049,-0.0061 z"
     id="path106" />
  <path
     style="fill:#0000ff;stroke-width:0.00390625"
     d="M 6.6781305,13.733469 C 6.2319509,13.336779 5.8612566,12.863681 5.5796279,12.331506 5.516765,12.212718 5.5054874,12.188928 5.5120401,12.188928 c 0.00353,0 0.01385,0.01595 0.025914,0.04004 0.2338369,0.466937 0.5440023,0.894012 0.931192,1.282182 0.082692,0.0829 0.1916521,0.185667 0.2557983,0.241255 0.011776,0.01021 0.019373,0.01855 0.016882,0.01855 -0.00249,0 -0.0051,0.0029 -0.00579,0.0064 -9.014e-4,0.0046 -0.017475,-0.008 -0.057904,-0.04392 z"
     id="path108" />
  <path
     style="fill:#0000ff;stroke-width:0.00390625"
     d="M 7.732818,14.454086 C 7.3924093,14.278011 7.1123542,14.094467 6.825769,13.859618 c -0.054724,-0.04484 -0.060855,-0.05106 -0.056802,-0.05755 0.00364,-0.0058 0.00568,-0.0063 0.010289,-0.0026 0.00316,0.0026 0.029567,0.02457 0.058682,0.04887 0.2750414,0.229563 0.6177223,0.453552 0.9446839,0.61748 0.018699,0.0094 0.032227,0.0186 0.032227,0.02197 0,0.0032 -0.00132,0.0058 -0.00293,0.0058 -0.00161,-3.6e-5 -0.037207,-0.01779 -0.079102,-0.03946 z"
     id="path110" />
</svg>
